<?xml version="1.0" encoding="UTF-8" standalone="no"?>
<svg
   width="257"
   height="257"
   viewBox="0 0 257 257"
   fill="none"
   version="1.1"
   id="svg5"
   sodipodi:docname="lll.svg"
   xml:space="preserve"
   inkscape:version="1.3.2 (091e20ef0f, 2023-11-25, custom)"
   xmlns:inkscape="http://www.inkscape.org/namespaces/inkscape"
   xmlns:sodipodi="http://sodipodi.sourceforge.net/DTD/sodipodi-0.dtd"
   xmlns="http://www.w3.org/2000/svg"
   xmlns:svg="http://www.w3.org/2000/svg"><sodipodi:namedview
     id="namedview5"
     pagecolor="#ffffff"
     bordercolor="#000000"
     borderopacity="0.25"
     inkscape:showpageshadow="2"
     inkscape:pageopacity="0.0"
     inkscape:pagecheckerboard="0"
     inkscape:deskcolor="#d1d1d1"
     showgrid="true"
     inkscape:zoom="3.2996109"
     inkscape:cx="156.38208"
     inkscape:cy="130.3184"
     inkscape:window-width="1920"
     inkscape:window-height="1052"
     inkscape:window-x="0"
     inkscape:window-y="0"
     inkscape:window-maximized="1"
     inkscape:current-layer="g5"><inkscape:grid
       id="grid5"
       units="px"
       originx="0"
       originy="0"
       spacingx="1"
       spacingy="1"
       empcolor="#0099e5"
       empopacity="0.30196078"
       color="#0099e5"
       opacity="0.14901961"
       empspacing="5"
       dotted="false"
       gridanglex="30"
       gridanglez="30"
       visible="true" /></sodipodi:namedview><path
     fill-rule="evenodd"
     clip-rule="evenodd"
     d="M164.329 25.2881C164.329 25.2881 177.933 39.7912 189.471 43.5554C201.094 47.3472 220.778 43.5554 220.778 43.5554C220.778 43.5554 223.259 63.4438 230.452 73.3295C237.613 83.1707 255.665 91.6481 255.665 91.6481C255.665 91.6481 246.035 109.117 246.035 121.288C246.035 133.459 255.665 150.928 255.665 150.928C255.665 150.928 237.613 159.405 230.452 169.247C223.259 179.132 220.778 199.021 220.778 199.021C220.778 199.021 212.789 197.482 203.985 197.345C204.037 196.441 204.063 195.531 204.063 194.614C204.063 171.308 187.032 151.98 164.736 148.397C156.67 121.603 131.819 102.088 102.394 102.088C94.3215 102.088 86.594 103.558 79.4635 106.242C76.6555 98.2934 72.992 91.6481 72.992 91.6481C72.992 91.6481 91.0442 83.1707 98.2053 73.3295C105.399 63.4438 107.879 43.5554 107.879 43.5554C107.879 43.5554 127.563 47.3472 139.186 43.5554C150.724 39.7912 164.329 25.2881 164.329 25.2881ZM193.667 198.012C192.193 198.263 190.781 198.594 189.471 199.021C177.933 202.785 164.329 217.288 164.329 217.288C164.329 217.288 150.724 202.785 139.186 199.021C127.563 195.229 107.879 199.021 107.879 199.021C107.879 199.021 105.399 179.132 98.2053 169.247C91.0442 159.405 72.992 150.928 72.992 150.928C72.992 150.928 82.6226 133.459 82.6226 121.288C82.6226 119.663 82.4509 117.943 82.1532 116.183C88.4158 113.695 95.2451 112.328 102.394 112.328C129.578 112.328 152.144 132.101 156.494 158.05C156.746 158.045 156.998 158.042 157.252 158.042C177.45 158.042 193.823 174.416 193.823 194.614C193.823 195.759 193.77 196.893 193.667 198.012Z"
     fill="url(#paint0_linear_6_173)"
     id="path1" /><path
     d="M157.253 231.185C177.45 231.184 193.823 214.811 193.823 194.614C193.823 174.416 177.45 158.042 157.252 158.042C156.998 158.042 156.746 158.045 156.494 158.05C152.144 132.102 129.578 112.328 102.394 112.328C81.8678 112.328 63.9749 123.601 54.5687 140.294C52.277 139.94 49.9291 139.757 47.5383 139.757C22.291 139.757 1.82404 160.224 1.82404 185.471C1.82404 210.718 22.291 231.185 47.5383 231.185C47.5385 231.185 47.5381 231.185 47.5383 231.185L157.253 231.185Z"
     fill="url(#paint1_linear_6_173)"
     id="path2" /><defs
     id="defs5"><linearGradient
       id="paint0_linear_6_173"
       x1="77.6"
       y1="32.974"
       x2="326.888"
       y2="197.899"
       gradientUnits="userSpaceOnUse"><stop
         stop-color="#FFC400"
         id="stop2" /><stop
         offset="1"
         stop-color="#FF6F00"
         id="stop3" /></linearGradient><linearGradient
       id="paint1_linear_6_173"
       x1="1.82407"
       y1="114.248"
       x2="193.824"
       y2="229.448"
       gradientUnits="userSpaceOnUse"><stop
         stop-color="#ECEFF1"
         id="stop4" /><stop
         offset="1"
         stop-color="#B0BEC5"
         id="stop5" /></linearGradient><linearGradient
       id="paint0_linear_110_2"
       x1="192.6"
       y1="200.331"
       x2="192.6"
       y2="228.287"
       gradientUnits="userSpaceOnUse"
       gradientTransform="translate(0,-2.7370123)"><stop
         stop-color="#1976D2"
         id="stop4-7" /><stop
         offset="1"
         stop-color="#0D47A1"
         id="stop5-5" /></linearGradient><linearGradient
       id="paint1_linear_110_2"
       x1="128.6"
       y1="200.331"
       x2="128.6"
       y2="228.287"
       gradientUnits="userSpaceOnUse"
       gradientTransform="translate(0,-2.7370123)"><stop
         stop-color="#1976D2"
         id="stop6" /><stop
         offset="1"
         stop-color="#0D47A1"
         id="stop7" /></linearGradient><linearGradient
       id="paint2_linear_110_2"
       x1="64.6"
       y1="200.331"
       x2="64.6"
       y2="228.287"
       gradientUnits="userSpaceOnUse"
       gradientTransform="translate(0,-2.7370123)"><stop
         stop-color="#1976D2"
         id="stop8" /><stop
         offset="1"
         stop-color="#0D47A1"
         id="stop9" /></linearGradient><linearGradient
       id="paint3_linear_110_2"
       x1="0.600046"
       y1="30.296"
       x2="256.6"
       y2="183.896"
       gradientUnits="userSpaceOnUse"><stop
         stop-color="#ECEFF1"
         id="stop10" /><stop
         offset="1"
         stop-color="#B0BEC5"
         id="stop11" /></linearGradient></defs><g
     style="fill:none"
     id="g5"
     transform="matrix(0.80244136,0,0,0.73072379,-5.1607535,90.37147)"><path
       d="m 184.422,207.81699 8.178,-10.223 8.178,10.223 c 1.605,1.878 2.574,4.316 2.574,6.981 0,5.938 -4.814,10.752 -10.752,10.752 -5.938,0 -10.752,-4.814 -10.752,-10.752 0,-2.665 0.969,-5.103 2.574,-6.981 z"
       fill="url(#paint0_linear_110_2)"
       id="path1-3"
       style="fill:url(#paint0_linear_110_2)" /><path
       d="m 120.422,207.81699 8.178,-10.223 8.178,10.223 c 1.605,1.878 2.574,4.316 2.574,6.981 0,5.938 -4.814,10.752 -10.752,10.752 -5.938,0 -10.752,-4.814 -10.752,-10.752 0,-2.665 0.969,-5.103 2.574,-6.981 z"
       fill="url(#paint1_linear_110_2)"
       id="path2-6"
       style="fill:url(#paint1_linear_110_2)" /><path
       d="m 56.422,207.81699 8.178,-10.223 8.1779,10.223 c 1.605,1.878 2.574,4.316 2.574,6.981 0,5.938 -4.8138,10.752 -10.7519,10.752 -5.9382,0 -10.752,-4.814 -10.752,-10.752 0,-2.665 0.9691,-5.103 2.574,-6.981 z"
       fill="url(#paint2_linear_110_2)"
       id="path3"
       style="fill:url(#paint2_linear_110_2)" /></g></svg>
