<?xml version="1.0" encoding="UTF-8" standalone="no"?>
<svg
   width="257"
   height="257"
   viewBox="0 0 257 257"
   fill="none"
   version="1.1"
   id="svg17"
   sodipodi:docname="showerrain.svg"
   inkscape:version="1.3.2 (091e20ef0f, 2023-11-25, custom)"
   xmlns:inkscape="http://www.inkscape.org/namespaces/inkscape"
   xmlns:sodipodi="http://sodipodi.sourceforge.net/DTD/sodipodi-0.dtd"
   xmlns:xlink="http://www.w3.org/1999/xlink"
   xmlns="http://www.w3.org/2000/svg"
   xmlns:svg="http://www.w3.org/2000/svg">
  <sodipodi:namedview
     id="namedview17"
     pagecolor="#ffffff"
     bordercolor="#000000"
     borderopacity="0.25"
     inkscape:showpageshadow="2"
     inkscape:pageopacity="0.0"
     inkscape:pagecheckerboard="0"
     inkscape:deskcolor="#d1d1d1"
     inkscape:zoom="3.2996109"
     inkscape:cx="126.6816"
     inkscape:cy="123.34788"
     inkscape:window-width="1920"
     inkscape:window-height="1052"
     inkscape:window-x="0"
     inkscape:window-y="0"
     inkscape:window-maximized="1"
     inkscape:current-layer="svg17" />
  <path
     d="m 169.50424,214.74097 16.49996,-5.69434 1.9335,17.3475 c 0.47032,3.26089 -0.17425,6.69838 -2.0728,9.70159 -4.23047,6.69194 -13.08621,8.68767 -19.77815,4.4572 -6.69279,-4.231 -8.68766,-13.08621 -4.4572,-19.77815 1.89855,-3.00322 4.72728,-5.05994 7.87469,-6.0338 z"
     fill="url(#paint1_linear_33_21)"
     id="path2"
     style="fill:url(#paint1_linear_33_21)" />
  <path
     d="m 71.760229,214.74103 16.499872,-5.6944 1.93351,17.34751 c 0.470224,3.26084 -0.174256,6.69837 -2.07281,9.70158 -4.230467,6.69194 -13.085699,8.68798 -19.778147,4.4572 -6.692444,-4.23079 -8.687666,-13.08621 -4.457201,-19.77814 1.898558,-3.00323 4.727448,-5.05983 7.874776,-6.03375 z"
     fill="url(#paint3_linear_33_21)"
     id="path4"
     style="fill:url(#linearGradient20)" />
  <path
     d="m 122.21345,189.31284 16.49987,-5.6944 1.93351,17.34751 c 0.47022,3.26084 -0.17426,6.69837 -2.07281,9.70158 -4.23047,6.69194 -13.0857,8.68798 -19.77815,4.4572 -6.69244,-4.23079 -8.68766,-13.08621 -4.4572,-19.77814 1.89856,-3.00323 4.72745,-5.05983 7.87478,-6.03375 z"
     fill="url(#paint3_linear_33_21)"
     id="path4-5"
     style="fill:url(#linearGradient18)" />
  <path
     d="M207.439 171.364C234.368 171.363 256.199 149.532 256.199 122.602C256.199 95.6718 234.367 73.8403 207.437 73.8403C207.099 73.8403 206.762 73.8438 206.426 73.8507C200.627 39.2525 170.539 12.888 134.293 12.888C106.925 12.888 83.0679 27.9189 70.5262 50.1758C67.4706 49.7041 64.3401 49.4594 61.1524 49.4594C27.4893 49.4594 0.199997 76.7487 0.199997 110.412C0.199997 144.075 27.4893 171.364 61.1524 171.364C61.1526 171.364 61.1521 171.364 61.1524 171.364L207.439 171.364Z"
     fill="url(#paint5_linear_33_21)"
     id="path6" />
  <defs
     id="defs17">
    <linearGradient
       id="paint0_linear_33_21"
       x1="223.944"
       y1="185.483"
       x2="223.944"
       y2="213.439"
       gradientUnits="userSpaceOnUse"
       gradientTransform="rotate(32.3,223.60929,199.5207)">
      <stop
         stop-color="#1976D2"
         id="stop6" />
      <stop
         offset="1"
         stop-color="#0D47A1"
         id="stop7" />
    </linearGradient>
    <linearGradient
       id="paint1_linear_33_21"
       x1="176.072"
       y1="205.912"
       x2="176.072"
       y2="243.186"
       gradientUnits="userSpaceOnUse"
       gradientTransform="rotate(32.3,175.62574,224.62859)">
      <stop
         stop-color="#1976D2"
         id="stop8" />
      <stop
         offset="1"
         stop-color="#0D47A1"
         id="stop9" />
    </linearGradient>
    <linearGradient
       id="paint2_linear_33_21"
       x1="128.2"
       y1="185.483"
       x2="128.2"
       y2="213.439"
       gradientUnits="userSpaceOnUse"
       gradientTransform="rotate(32.3,127.86529,199.5207)">
      <stop
         stop-color="#1976D2"
         id="stop10" />
      <stop
         offset="1"
         stop-color="#0D47A1"
         id="stop11" />
    </linearGradient>
    <linearGradient
       id="paint3_linear_33_21"
       x1="80.3279"
       y1="205.912"
       x2="80.3279"
       y2="243.186"
       gradientUnits="userSpaceOnUse"
       gradientTransform="rotate(32.3,79.881642,224.62859)">
      <stop
         stop-color="#1976D2"
         id="stop12" />
      <stop
         offset="1"
         stop-color="#0D47A1"
         id="stop13" />
    </linearGradient>
    <linearGradient
       id="paint4_linear_33_21"
       x1="32.4559"
       y1="185.483"
       x2="32.4559"
       y2="213.439"
       gradientUnits="userSpaceOnUse"
       gradientTransform="rotate(32.3,32.121237,199.5207)">
      <stop
         stop-color="#1976D2"
         id="stop14" />
      <stop
         offset="1"
         stop-color="#0D47A1"
         id="stop15" />
    </linearGradient>
    <linearGradient
       id="paint5_linear_33_21"
       x1="0.200037"
       y1="15.448"
       x2="256.2"
       y2="169.048"
       gradientUnits="userSpaceOnUse">
      <stop
         stop-color="#ECEFF1"
         id="stop16" />
      <stop
         offset="1"
         stop-color="#B0BEC5"
         id="stop17" />
    </linearGradient>
    <linearGradient
       inkscape:collect="always"
       xlink:href="#paint3_linear_33_21"
       id="linearGradient17"
       gradientUnits="userSpaceOnUse"
       gradientTransform="rotate(32.3,100.14139,130.2605)"
       x1="80.3279"
       y1="205.912"
       x2="80.3279"
       y2="243.186" />
    <linearGradient
       inkscape:collect="always"
       xlink:href="#paint3_linear_33_21"
       id="linearGradient18"
       gradientUnits="userSpaceOnUse"
       gradientTransform="rotate(32.3,148.01342,295.57546)"
       x1="80.3279"
       y1="205.912"
       x2="80.3279"
       y2="243.186" />
    <linearGradient
       inkscape:collect="always"
       xlink:href="#paint3_linear_33_21"
       id="linearGradient19"
       gradientUnits="userSpaceOnUse"
       gradientTransform="rotate(32.3,195.88543,460.89031)"
       x1="80.3279"
       y1="205.912"
       x2="80.3279"
       y2="243.186" />
    <linearGradient
       inkscape:collect="always"
       xlink:href="#paint3_linear_33_21"
       id="linearGradient20"
       gradientUnits="userSpaceOnUse"
       gradientTransform="rotate(32.3,78.881642,221.17532)"
       x1="80.3279"
       y1="205.912"
       x2="80.3279"
       y2="243.186" />
  </defs>
  <path
     d="m 26.469374,189.31284 16.499872,-5.6944 1.93351,17.34751 c 0.470224,3.26084 -0.174256,6.69837 -2.07281,9.70158 -4.230467,6.69194 -13.085699,8.68798 -19.778147,4.4572 -6.692444,-4.23079 -8.687666,-13.08621 -4.457201,-19.77814 1.898558,-3.00323 4.727448,-5.05983 7.874776,-6.03375 z"
     fill="url(#paint3_linear_33_21)"
     id="path4-7"
     style="fill:url(#linearGradient17)" />
  <path
     d="m 217.95745,189.31284 16.49987,-5.6944 1.93351,17.34751 c 0.47022,3.26084 -0.17426,6.69837 -2.07281,9.70158 -4.23047,6.69194 -13.0857,8.68798 -19.77815,4.4572 -6.69244,-4.23079 -8.68766,-13.08621 -4.4572,-19.77814 1.89856,-3.00323 4.72745,-5.05983 7.87478,-6.03375 z"
     fill="url(#paint3_linear_33_21)"
     id="path4-9"
     style="fill:url(#linearGradient19)" />
</svg>
