<?xml version="1.0" encoding="UTF-8" standalone="no"?>
<svg
   width="257"
   height="257"
   viewBox="0 0 257 257"
   fill="none"
   version="1.1"
   id="svg2"
   sodipodi:docname="brokenclouds.svg"
   inkscape:version="1.3.2 (091e20ef0f, 2023-11-25, custom)"
   xmlns:inkscape="http://www.inkscape.org/namespaces/inkscape"
   xmlns:sodipodi="http://sodipodi.sourceforge.net/DTD/sodipodi-0.dtd"
   xmlns="http://www.w3.org/2000/svg"
   xmlns:svg="http://www.w3.org/2000/svg">
  <sodipodi:namedview
     id="namedview2"
     pagecolor="#ffffff"
     bordercolor="#000000"
     borderopacity="0.25"
     inkscape:showpageshadow="2"
     inkscape:pageopacity="0.0"
     inkscape:pagecheckerboard="0"
     inkscape:deskcolor="#d1d1d1"
     inkscape:zoom="3.2996109"
     inkscape:cx="128.5"
     inkscape:cy="128.5"
     inkscape:window-width="959"
     inkscape:window-height="1052"
     inkscape:window-x="960"
     inkscape:window-y="0"
     inkscape:window-maximized="0"
     inkscape:current-layer="svg2" />
  <path
     d="M207.639 207.716C234.568 207.715 256.399 185.884 256.399 158.954C256.399 132.024 234.567 110.192 207.637 110.192C207.299 110.192 206.962 110.196 206.626 110.203C200.827 75.6046 170.739 49.2401 134.493 49.2401C107.125 49.2401 83.2678 64.2709 70.7262 86.5278C67.6706 86.0562 64.54 85.8115 61.3523 85.8115C27.6893 85.8115 0.399963 113.101 0.399963 146.764C0.399963 180.427 27.6893 207.716 61.3523 207.716C61.3526 207.716 61.3521 207.716 61.3523 207.716L207.639 207.716Z"
     fill="url(#paint0_linear_14_32)"
     id="path1" />
  <defs
     id="defs2">
    <linearGradient
       id="paint0_linear_14_32"
       x1="0.400003"
       y1="51.8"
       x2="256.4"
       y2="205.4"
       gradientUnits="userSpaceOnUse">
      <stop
         stop-color="#ECEFF1"
         id="stop1"
         offset="0"
         style="stop-color:#b0bec5;stop-opacity:1;" />
      <stop
         offset="1"
         stop-color="#B0BEC5"
         id="stop2"
         style="stop-color:#616161;stop-opacity:1;" />
    </linearGradient>
  </defs>
</svg>
