<?xml version="1.0" encoding="UTF-8" standalone="no"?>
<svg
   width="257"
   height="257"
   viewBox="0 0 257 257"
   fill="none"
   version="1.1"
   id="svg5"
   sodipodi:docname="lightrain.svg"
   xml:space="preserve"
   inkscape:version="1.3.2 (091e20ef0f, 2023-11-25, custom)"
   xmlns:inkscape="http://www.inkscape.org/namespaces/inkscape"
   xmlns:sodipodi="http://sodipodi.sourceforge.net/DTD/sodipodi-0.dtd"
   xmlns="http://www.w3.org/2000/svg"
   xmlns:svg="http://www.w3.org/2000/svg"><sodipodi:namedview
     id="namedview5"
     pagecolor="#ffffff"
     bordercolor="#000000"
     borderopacity="0.25"
     inkscape:showpageshadow="2"
     inkscape:pageopacity="0.0"
     inkscape:pagecheckerboard="0"
     inkscape:deskcolor="#d1d1d1"
     inkscape:zoom="2.3331772"
     inkscape:cx="123.00823"
     inkscape:cy="181.29785"
     inkscape:window-width="1920"
     inkscape:window-height="1052"
     inkscape:window-x="0"
     inkscape:window-y="0"
     inkscape:window-maximized="1"
     inkscape:current-layer="svg5" /><g
     style="fill:none"
     id="g5"
     transform="matrix(0.80244136,0,0,0.73072379,-6.3847935,90.37137)"
     inkscape:label="g5"><path
       d="m 184.422,207.81699 8.178,-10.223 8.178,10.223 c 1.605,1.878 2.574,4.316 2.574,6.981 0,5.938 -4.814,10.752 -10.752,10.752 -5.938,0 -10.752,-4.814 -10.752,-10.752 0,-2.665 0.969,-5.103 2.574,-6.981 z"
       fill="url(#paint0_linear_110_2)"
       id="path1-3"
       style="fill:url(#paint0_linear_110_2-7)" /><path
       d="m 120.422,207.81699 8.178,-10.223 8.178,10.223 c 1.605,1.878 2.574,4.316 2.574,6.981 0,5.938 -4.814,10.752 -10.752,10.752 -5.938,0 -10.752,-4.814 -10.752,-10.752 0,-2.665 0.969,-5.103 2.574,-6.981 z"
       fill="url(#paint1_linear_110_2)"
       id="path2-6"
       style="fill:url(#paint1_linear_110_2-2)" /><path
       d="m 56.422,207.81699 8.178,-10.223 8.1779,10.223 c 1.605,1.878 2.574,4.316 2.574,6.981 0,5.938 -4.8138,10.752 -10.7519,10.752 -5.9382,0 -10.752,-4.814 -10.752,-10.752 0,-2.665 0.9691,-5.103 2.574,-6.981 z"
       fill="url(#paint2_linear_110_2)"
       id="path3"
       style="fill:url(#paint2_linear_110_2-3)" /></g><path
     fill-rule="evenodd"
     clip-rule="evenodd"
     d="m 234.935,160.321 c 7.24,1.605 14.47,2.346 21.583,2.293 -11.502,24.192 -32.519,42.113 -57.308,50.104 2.337,-5.569 3.629,-11.686 3.629,-18.104 0,-23.306 -17.031,-42.634 -39.327,-46.217 -8.066,-26.794 -32.917,-46.309 -62.342,-46.309 -9.3855,0 -18.3047,1.987 -26.3615,5.56 0.3432,-2.37 0.7769,-4.745 1.3036,-7.12 9.8704,-44.5231 49.1779,-74.9125 92.9199,-75.24 -3.054,6.4239 -5.438,13.2901 -7.043,20.5299 -11.475,51.7626 21.184,103.0271 72.946,114.5031 z m -49.248,55.693 c -11.819,1.982 -24.209,1.769 -36.629,-0.984 -45.368,-10.058 -76.0608,-50.681 -75.2254,-95.416 8.0481,-4.635 17.3829,-7.286 27.3374,-7.286 27.184,0 49.75,19.773 54.1,45.722 0.252,-0.005 0.504,-0.008 0.758,-0.008 20.198,0 36.571,16.374 36.571,36.572 0,7.991 -2.563,15.383 -6.912,21.4 z"
     fill="url(#paint0_linear_6_145)"
     id="path1"
     style="fill:url(#paint0_linear_6_145)" /><path
     d="m 156.029,231.185 c 20.197,-0.001 36.57,-16.374 36.57,-36.571 0,-20.198 -16.373,-36.572 -36.571,-36.572 -0.254,0 -0.506,0.003 -0.758,0.008 -4.35,-25.949 -26.916,-45.722 -54.1,-45.722 -20.5262,0 -38.4191,11.273 -47.8253,27.966 -2.2917,-0.354 -4.6396,-0.537 -7.0304,-0.537 -25.2473,0 -45.714294,20.467 -45.714294,45.714 0,25.247 20.466994,45.714 45.714294,45.714 2e-4,0 -2e-4,0 0,0 z"
     fill="url(#paint1_linear_6_145)"
     id="path2"
     style="fill:url(#paint1_linear_6_145)" /><defs
     id="defs5"><linearGradient
       id="paint0_linear_6_145"
       x1="77.4"
       y1="32.8883"
       x2="306.576"
       y2="204.978"
       gradientUnits="userSpaceOnUse"><stop
         stop-color="#B388FF"
         id="stop2" /><stop
         offset="1"
         stop-color="#7C4DFF"
         id="stop3" /></linearGradient><linearGradient
       id="paint1_linear_6_145"
       x1="0.600036"
       y1="114.248"
       x2="192.6"
       y2="229.448"
       gradientUnits="userSpaceOnUse"><stop
         stop-color="#ECEFF1"
         id="stop4"
         offset="0"
         style="stop-color:#b0bec5;stop-opacity:1;" /><stop
         offset="1"
         stop-color="#B0BEC5"
         id="stop5"
         style="stop-color:#616161;stop-opacity:1;" /></linearGradient><linearGradient
       id="paint0_linear_110_2"
       x1="192.6"
       y1="200.331"
       x2="192.6"
       y2="228.287"
       gradientUnits="userSpaceOnUse"><stop
         stop-color="#1976D2"
         id="stop4-7" /><stop
         offset="1"
         stop-color="#0D47A1"
         id="stop5-0" /></linearGradient><linearGradient
       id="paint1_linear_110_2"
       x1="128.6"
       y1="200.331"
       x2="128.6"
       y2="228.287"
       gradientUnits="userSpaceOnUse"><stop
         stop-color="#1976D2"
         id="stop6" /><stop
         offset="1"
         stop-color="#0D47A1"
         id="stop7" /></linearGradient><linearGradient
       id="paint2_linear_110_2"
       x1="64.6"
       y1="200.331"
       x2="64.6"
       y2="228.287"
       gradientUnits="userSpaceOnUse"><stop
         stop-color="#1976D2"
         id="stop8" /><stop
         offset="1"
         stop-color="#0D47A1"
         id="stop9" /></linearGradient><linearGradient
       id="paint3_linear_110_2"
       x1="0.600046"
       y1="30.296"
       x2="256.6"
       y2="183.896"
       gradientUnits="userSpaceOnUse"><stop
         stop-color="#ECEFF1"
         id="stop10" /><stop
         offset="1"
         stop-color="#B0BEC5"
         id="stop11" /></linearGradient><linearGradient
       id="paint0_linear_6_173"
       x1="77.6"
       y1="32.974"
       x2="326.888"
       y2="197.899"
       gradientUnits="userSpaceOnUse"><stop
         stop-color="#FFC400"
         id="stop2-2" /><stop
         offset="1"
         stop-color="#FF6F00"
         id="stop3-6" /></linearGradient><linearGradient
       id="paint1_linear_6_173"
       x1="1.82407"
       y1="114.248"
       x2="193.824"
       y2="229.448"
       gradientUnits="userSpaceOnUse"><stop
         stop-color="#ECEFF1"
         id="stop4-1" /><stop
         offset="1"
         stop-color="#B0BEC5"
         id="stop5-8" /></linearGradient><linearGradient
       id="paint0_linear_110_2-7"
       x1="192.6"
       y1="200.331"
       x2="192.6"
       y2="228.287"
       gradientUnits="userSpaceOnUse"
       gradientTransform="translate(0,-2.7370123)"><stop
         stop-color="#1976D2"
         id="stop4-7-9" /><stop
         offset="1"
         stop-color="#0D47A1"
         id="stop5-5" /></linearGradient><linearGradient
       id="paint1_linear_110_2-2"
       x1="128.6"
       y1="200.331"
       x2="128.6"
       y2="228.287"
       gradientUnits="userSpaceOnUse"
       gradientTransform="translate(0,-2.7370123)"><stop
         stop-color="#1976D2"
         id="stop6-0" /><stop
         offset="1"
         stop-color="#0D47A1"
         id="stop7-2" /></linearGradient><linearGradient
       id="paint2_linear_110_2-3"
       x1="64.6"
       y1="200.331"
       x2="64.6"
       y2="228.287"
       gradientUnits="userSpaceOnUse"
       gradientTransform="translate(0,-2.7370123)"><stop
         stop-color="#1976D2"
         id="stop8-7" /><stop
         offset="1"
         stop-color="#0D47A1"
         id="stop9-5" /></linearGradient><linearGradient
       id="paint3_linear_110_2-9"
       x1="0.600046"
       y1="30.296"
       x2="256.6"
       y2="183.896"
       gradientUnits="userSpaceOnUse"><stop
         stop-color="#ECEFF1"
         id="stop10-2" /><stop
         offset="1"
         stop-color="#B0BEC5"
         id="stop11-2" /></linearGradient></defs></svg>
