<?xml version="1.0" encoding="UTF-8" standalone="no"?>
<svg
   width="257"
   height="257"
   viewBox="0 0 257 257"
   fill="none"
   version="1.1"
   id="svg5"
   sodipodi:docname="mist.svg"
   inkscape:version="1.3.2 (091e20ef0f, 2023-11-25, custom)"
   xmlns:inkscape="http://www.inkscape.org/namespaces/inkscape"
   xmlns:sodipodi="http://sodipodi.sourceforge.net/DTD/sodipodi-0.dtd"
   xmlns="http://www.w3.org/2000/svg"
   xmlns:svg="http://www.w3.org/2000/svg">
  <sodipodi:namedview
     id="namedview5"
     pagecolor="#ffffff"
     bordercolor="#000000"
     borderopacity="0.25"
     inkscape:showpageshadow="2"
     inkscape:pageopacity="0.0"
     inkscape:pagecheckerboard="0"
     inkscape:deskcolor="#d1d1d1"
     inkscape:zoom="3.2996109"
     inkscape:cx="128.80307"
     inkscape:cy="128.80307"
     inkscape:window-width="1920"
     inkscape:window-height="1052"
     inkscape:window-x="0"
     inkscape:window-y="0"
     inkscape:window-maximized="1"
     inkscape:current-layer="svg5" />
  <path
     fill-rule="evenodd"
     clip-rule="evenodd"
     d="M34.0799 197.72C31.2522 197.72 28.9599 200.012 28.9599 202.84C28.9599 205.668 31.2522 207.96 34.0799 207.96H251.68C254.508 207.96 256.8 205.668 256.8 202.84C256.8 200.012 254.508 197.72 251.68 197.72H34.0799ZM5.91999 218.2C3.09229 218.2 0.799988 220.492 0.799988 223.32C0.799988 226.148 3.09229 228.44 5.91999 228.44H223.52C226.348 228.44 228.64 226.148 228.64 223.32C228.64 220.492 226.348 218.2 223.52 218.2H5.91999Z"
     fill="url(#paint0_linear_41_9)"
     id="path1" />
  <path
     d="M208.039 187.492C234.968 187.491 256.799 165.66 256.799 138.73C256.799 111.8 234.967 89.9684 208.037 89.9684C207.699 89.9684 207.362 89.9719 207.026 89.9787C201.227 55.3806 171.139 29.016 134.893 29.016C107.525 29.016 83.6678 44.0469 71.1262 66.3038C68.0706 65.8322 64.9401 65.5875 61.7524 65.5875C28.0893 65.5875 0.799988 92.8768 0.799988 126.54C0.799988 160.203 28.0893 187.492 61.7524 187.492C61.7526 187.492 61.7521 187.492 61.7524 187.492L208.039 187.492Z"
     fill="url(#paint1_linear_41_9)"
     id="path2" />
  <defs
     id="defs5">
    <linearGradient
       id="paint0_linear_41_9"
       x1="0.799988"
       y1="197.72"
       x2="256.8"
       y2="227.16"
       gradientUnits="userSpaceOnUse">
      <stop
         stop-color="#ECEFF1"
         id="stop2"
         offset="0"
         style="stop-color:#b0bec5;stop-opacity:1;" />
      <stop
         offset="1"
         stop-color="#B0BEC5"
         id="stop3"
         style="stop-color:#616161;stop-opacity:1;" />
    </linearGradient>
    <linearGradient
       id="paint1_linear_41_9"
       x1="0.800028"
       y1="31.576"
       x2="256.8"
       y2="185.176"
       gradientUnits="userSpaceOnUse">
      <stop
         stop-color="#ECEFF1"
         id="stop4"
         offset="0"
         style="stop-color:#b0b3c5;stop-opacity:1;" />
      <stop
         offset="1"
         stop-color="#B0BEC5"
         id="stop5"
         style="stop-color:#616161;stop-opacity:1;" />
    </linearGradient>
  </defs>
</svg>
