<?xml version="1.0" encoding="UTF-8" standalone="no"?>
<svg
   width="257"
   height="257"
   viewBox="0 0 257 257"
   fill="none"
   version="1.1"
   id="svg2"
   sodipodi:docname="overcastclouds.svg"
   xml:space="preserve"
   inkscape:version="1.3.2 (091e20ef0f, 2023-11-25, custom)"
   xmlns:inkscape="http://www.inkscape.org/namespaces/inkscape"
   xmlns:sodipodi="http://sodipodi.sourceforge.net/DTD/sodipodi-0.dtd"
   xmlns:xlink="http://www.w3.org/1999/xlink"
   xmlns="http://www.w3.org/2000/svg"
   xmlns:svg="http://www.w3.org/2000/svg"><sodipodi:namedview
     id="namedview2"
     pagecolor="#ffffff"
     bordercolor="#000000"
     borderopacity="0.25"
     inkscape:showpageshadow="2"
     inkscape:pageopacity="0.0"
     inkscape:pagecheckerboard="0"
     inkscape:deskcolor="#d1d1d1"
     inkscape:zoom="3.2996109"
     inkscape:cx="147.29009"
     inkscape:cy="156.68514"
     inkscape:window-width="1920"
     inkscape:window-height="1052"
     inkscape:window-x="0"
     inkscape:window-y="0"
     inkscape:window-maximized="1"
     inkscape:current-layer="svg2" /><defs
     id="defs2"><inkscape:path-effect
       effect="fillet_chamfer"
       id="path-effect60"
       is_visible="true"
       lpeversion="1"
       nodesatellites_param="F,0,0,1,0,4,0,1 @ F,0,0,1,0,4,0,1 @ F,0,0,1,0,4,0,1 @ F,0,0,1,0,4,0,1 @ F,0,0,1,0,4,0,1 @ F,0,0,1,0,4,0,1 @ F,0,0,1,0,4,0,1 @ F,0,0,1,0,4,0,1 @ F,0,0,1,0,4,0,1 @ F,0,0,1,0,4,0,1 @ F,0,0,1,0,4,0,1 @ F,0,0,1,0,4,0,1 @ F,0,0,1,0,4,0,1 @ F,0,0,1,0,4,0,1 @ F,0,0,1,0,4,0,1 @ F,0,0,1,0,4,0,1 @ F,0,0,1,0,4,0,1"
       radius="4"
       unit="px"
       method="auto"
       mode="F"
       chamfer_steps="1"
       flexible="false"
       use_knot_distance="true"
       apply_no_radius="true"
       apply_with_radius="true"
       only_selected="false"
       hide_knots="false" /><linearGradient
       id="paint0_linear_14_32"
       x1="0.400003"
       y1="51.8"
       x2="256.4"
       y2="205.4"
       gradientUnits="userSpaceOnUse"
       gradientTransform="translate(-0.399963)"><stop
         stop-color="#ECEFF1"
         id="stop1"
         offset="0"
         style="stop-color:#b0bec5;stop-opacity:1;" /><stop
         offset="1"
         stop-color="#B0BEC5"
         id="stop2"
         style="stop-color:#616161;stop-opacity:1;" /></linearGradient><linearGradient
       id="paint0_linear_6_173"
       x1="77.6"
       y1="32.974"
       x2="326.888"
       y2="197.899"
       gradientUnits="userSpaceOnUse"><stop
         stop-color="#FFC400"
         id="stop2-9" /><stop
         offset="1"
         stop-color="#FF6F00"
         id="stop3" /></linearGradient><linearGradient
       id="paint1_linear_6_173"
       x1="1.82407"
       y1="114.248"
       x2="193.824"
       y2="229.448"
       gradientUnits="userSpaceOnUse"
       gradientTransform="translate(0.2388763,-2.2722067)"><stop
         stop-color="#ECEFF1"
         id="stop4"
         offset="0"
         style="stop-color:#b0bec5;stop-opacity:1;" /><stop
         offset="1"
         stop-color="#B0BEC5"
         id="stop5"
         style="stop-color:#616161;stop-opacity:1;" /></linearGradient><linearGradient
       inkscape:collect="always"
       xlink:href="#paint1_linear_6_173"
       id="linearGradient21"
       x1="-2.8421709e-14"
       y1="147.87959"
       x2="191.99896"
       y2="147.87959"
       gradientUnits="userSpaceOnUse" /><linearGradient
       inkscape:collect="always"
       xlink:href="#paint0_linear_14_32"
       id="linearGradient22"
       gradientUnits="userSpaceOnUse"
       x1="0.2578125"
       y1="128.47851"
       x2="256"
       y2="128.47851" /></defs><path
     id="path1"
     style="fill:url(#linearGradient22);stroke:none"
     d="m 134.09375,49.240234 c -27.36797,0 -51.225991,15.030232 -63.767578,37.28711 -3.055597,-0.4716 -6.18535,-0.716797 -9.373047,-0.716797 -31.811249,0 -57.9180282,24.374063 -60.6953125,55.462893 2.2645765,-5.08854 5.3919725,-9.79082 9.2539063,-13.8086 4.1537352,-4.26282 8.9828242,-7.91453 14.3554692,-10.50195 18.260935,-8.90505 24.339729,-1.35001 28.757812,-7.88086 8.648231,-12.204727 22.163739,-20.807191 36.833984,-23.654296 3.333217,-0.683397 6.729904,-0.925088 10.125,-1.017578 8.791056,-0.13836 17.598956,1.68247 25.595706,5.341797 15.34395,7.06675 27.24195,21.051757 32.0625,37.210937 0.28401,1.61667 1.526,3.00648 3.13086,3.39649 4.81708,0.61549 9.53089,2.07088 13.8164,4.36523 4.74379,2.59422 9.0652,6.01626 12.51367,10.19336 5.07733,6.07443 8.41061,13.65472 9.08985,21.56836 1.12535,9.19632 -1.31557,18.72351 -6.50391,26.37305 -4.21738,6.42288 -10.2564,11.64715 -17.23828,14.85742 h 35.1875 C 234.16725,207.7158 256,185.8831 256,158.95312 c 0,-26.92997 -21.8337,-48.76171 -48.76367,-48.76171 -0.338,0 -0.67377,0.005 -1.00977,0.0117 -5.79899,-34.59836 -35.88685,-60.962886 -72.13281,-60.962886 z"
     sodipodi:nodetypes="scscccccccccccccccsscs" /><path
     d="m 155.42896,207.30809 c 20.197,-0.001 36.57,-16.374 36.57,-36.571 0,-20.198 -16.373,-36.572 -36.571,-36.572 -0.254,0 -0.506,0.003 -0.758,0.008 -4.35,-25.948 -26.916,-45.722005 -54.1,-45.722005 -20.526199,0 -38.419099,11.273 -47.825299,27.966005 -2.2917,-0.354 -4.6396,-0.537 -7.0304,-0.537 -25.2473,0 -45.714261,20.467 -45.714261,45.714 0,25.247 20.466961,45.714 45.714261,45.714 2e-4,0 -2e-4,0 0,0 z"
     fill="url(#paint1_linear_6_173)"
     id="path2"
     style="fill:url(#linearGradient21);stroke:none" /></svg>
